<?xml version="1.0" encoding="UTF-8" standalone="no"?><!DOCTYPE svg PUBLIC "-//W3C//DTD SVG 1.1//EN" "http://www.w3.org/Graphics/SVG/1.1/DTD/svg11.dtd"><svg width="100%" height="100%" viewBox="0 0 71 87" version="1.1" xmlns="http://www.w3.org/2000/svg" xmlns:xlink="http://www.w3.org/1999/xlink" xml:space="preserve" xmlns:serif="http://www.serif.com/" style="fill-rule:evenodd;clip-rule:evenodd;stroke-linejoin:round;stroke-miterlimit:2;"><path d="M37.587,59.417c-0,-0 2.201,3.967 -5.533,10.371c-8.117,6.72 -11.234,8.489 -14.263,9.305c-1.892,0.51 -5.598,-0.044 -3.912,-4.409c6.093,-2.429 7.617,-3.009 12.134,-6.328c5.635,-4.142 11.574,-8.939 11.574,-8.939Zm0.224,5.119c-0,0 5.665,6.996 14.554,9.941c2.416,0.8 1.486,5.649 -4.034,4.406c-3.405,-0.766 -9.97,-4.114 -13.957,-9.744c1.94,-1.412 3.437,-4.603 3.437,-4.603Zm-17.522,14.805c-0,-0 5.447,3.105 12.589,2.966c7.143,-0.14 10.853,-0.979 14.465,-2.851c-4.5,-1.012 -8.297,-4.099 -8.297,-4.099c-0,0 -7.143,1.483 -11.686,-0.522c-2.721,2.31 -7.071,4.506 -7.071,4.506Zm12.015,-26.232c-0,-0 -5.754,-3.827 -10.399,-3.118c-4.195,0.64 -10.103,2.087 -11.988,10.513c-1.707,7.633 2.359,12.405 3.291,13.264c3.094,-0.999 6.48,-2.68 6.48,-2.68c0,-0 -5.234,-3.551 -4.024,-8.766c2.114,-9.113 11.853,-5.499 13.199,-4.803c0.693,-2.415 3.441,-4.41 3.441,-4.41Zm-17.973,-1.507c1.15,-0.797 2.455,-1.337 3.894,-1.559c-4.917,-3.653 -5.948,-9.465 -5.948,-9.465c-0,-0 -8.506,15.072 -3.306,26.402c-0.465,-3.552 -0.036,-6.983 1.12,-9.824c-0.79,-3.573 1.559,-9.792 1.559,-9.792c0,-0 0.407,3.019 2.681,4.238Zm15.396,12.534c-0.409,-1.736 -1.076,-5.951 1.592,-8.727c2.667,-2.775 7.231,-5.255 13.056,-5.189c7.104,0.08 12.298,5.252 12.72,12.241c0.549,9.073 -3.89,11.206 -3.89,11.206c-0,0 -2.6,-0.483 -5.617,-2.447c2.049,-1.783 6.976,-7.033 2.015,-12.226c-7.601,-7.957 -16.235,2.775 -19.876,5.142Zm28.364,0.529c-0.032,1.822 -0.308,3.654 -0.834,5.396c7.978,-8.364 4.909,-25.978 4.909,-25.978c-0,-0 -1.132,6.003 -6.465,11.078c0.648,1.062 1.165,2.231 1.551,3.466c1.962,-1.035 3.197,-5.097 3.197,-5.097c0,-0 -0.831,7.973 -2.358,11.135Zm-22.145,21.705c-7.116,0.249 -28.963,0.858 -35.946,-25.012c13.335,11.192 -7.843,-5.021 13.763,-31.824c-0.542,6.823 2.968,11.061 2.968,11.061c0,-0 -2.953,-31.179 32.293,-40.595c-13.432,31.962 2.54,32.83 7.008,49.59c3.667,-5.974 1.099,-9.547 8.158,-14.579c-2.045,6.597 5.177,11.097 4.767,21.322c-0.422,10.553 -7.709,12.888 -8.61,16.601c4.178,-1.478 10.004,-7.18 10.004,-7.18c-0,0 -10.346,19.775 -34.405,20.616Zm9.298,-37.056c2.711,0.202 5.441,1.115 7.799,3.139c-4.818,-10.579 -20.463,-15.965 -11.611,-43.603c-26.724,10.206 -18.82,39.89 -18.82,39.89c0,-0 1.871,0.009 4.346,0.712c-1.768,-3.756 -4.832,-25.811 8.835,-33.321c-4.796,17.873 7.567,31.271 9.451,33.183Z"/></svg>